<?xml version="1.0" standalone="no"?><!DOCTYPE svg PUBLIC "-//W3C//DTD SVG 1.1//EN" "http://www.w3.org/Graphics/SVG/1.1/DTD/svg11.dtd"><svg t="1712067802308" class="icon" viewBox="0 0 1024 1024" version="1.1" xmlns="http://www.w3.org/2000/svg" p-id="4632" xmlns:xlink="http://www.w3.org/1999/xlink" width="200" height="200"><path d="M684.2624 336.639078c10.256998 0 20.405555 0.753152 30.472294 1.873715C687.354982 211.026227 551.049933 116.304896 395.467162 116.304896c-173.940736 0-316.424704 118.557184-316.424704 269.103923 0 86.8992 47.403622 158.259405 126.61801 213.608038l-31.648051 95.184896 110.615859-55.468339c39.581082 7.834419 71.337677 15.888896 110.837965 15.888896 9.929523 0 19.775181-0.490189 29.539021-1.257677-6.182093-21.154816-9.763738-43.312435-9.763738-66.302054C415.242342 448.825139 533.955994 336.639078 684.2624 336.639078zM514.125517 250.849178c23.825613 0 39.60873 15.673958 39.60873 39.484314 0 23.715123-15.783117 39.607091-39.60873 39.607091-23.716147 0-47.513088-15.891968-47.513088-39.607091C466.612429 266.522112 490.40937 250.849178 514.125517 250.849178zM292.671693 329.939456c-23.713075 0-47.648154-15.891968-47.648154-39.607091 0-23.810253 23.934054-39.484314 47.648154-39.484314 23.715123 0 39.499264 15.673958 39.499264 39.484314C332.170957 314.04759 316.386816 329.939456 292.671693 329.939456zM973.059686 583.260979c0-126.504141-126.593434-229.620736-268.773478-229.620736-150.553088 0-269.128499 103.116493-269.128499 229.620736 0 126.72215 118.576538 229.620736 269.128499 229.620736 31.510938 0 63.294157-7.945933 94.942208-15.877632l86.79127 47.525376-23.796941-79.073894C925.73696 717.806285 973.059686 654.621286 973.059686 583.260979zM617.027379 543.668224c-15.755469 0-31.648051-15.673958-31.648051-31.661056 0-15.766118 15.892582-31.643648 31.648051-31.643648 23.934054 0 39.60873 15.877632 39.60873 31.643648C656.636109 527.994266 640.961434 543.668224 617.027379 543.668224zM791.077581 543.668224c-15.647027 0-31.430144-15.673958-31.430144-31.661056 0-15.766118 15.783117-31.643648 31.430144-31.643648 23.715123 0 39.605658 15.877632 39.605658 31.643648C830.684262 527.994266 814.793626 543.668224 791.077581 543.668224z" fill="#ffffff" p-id="4633"></path></svg>